<svg version="1.1" id="Layer_1" xmlns="http://www.w3.org/2000/svg" xmlns:xlink="http://www.w3.org/1999/xlink" x="0px" y="0px"
	 width="100%" viewBox="0 0 500 500" enable-background="new 0 0 500 500" xml:space="preserve">
<path fill="#000000" opacity="1.000000" stroke="none" 
	d="
M237.000000,501.000000 
	C158.000015,501.000000 79.500038,501.000000 1.000042,501.000000 
	C1.000028,334.333405 1.000028,167.666779 1.000014,1.000132 
	C167.666565,1.000088 334.333130,1.000088 500.999756,1.000044 
	C500.999847,167.666519 500.999847,334.333038 500.999939,500.999786 
	C413.166656,501.000000 325.333344,501.000000 237.000000,501.000000 
M379.469238,176.124435 
	C379.264526,176.395569 379.059814,176.666687 378.393768,177.420074 
	C377.586731,179.252411 376.779694,181.084763 375.294952,183.088364 
	C373.841309,185.712494 372.387665,188.336624 370.972565,191.006058 
	C370.972565,191.006058 370.975372,190.946655 370.600159,191.170212 
	C370.342010,191.356262 370.221863,191.608093 370.122101,192.450897 
	C370.080109,192.625320 370.038116,192.799728 369.571960,193.172165 
	C369.289825,193.361496 369.146210,193.626022 369.049622,194.447098 
	C369.049622,194.447098 368.982544,194.932465 368.349731,195.237106 
	C367.585999,196.841553 366.822266,198.445999 365.864105,200.538651 
	C365.557648,200.964996 365.251190,201.391357 364.424835,202.038452 
	C364.299744,202.372879 364.174652,202.707306 364.050659,203.501144 
	C364.050659,203.501144 363.996033,203.957275 363.567261,204.148575 
	C363.271240,204.340927 363.149139,204.611664 362.968445,205.482864 
	C362.629578,205.941818 362.290680,206.400787 361.335632,207.288376 
	C360.471313,209.258759 358.398499,211.115677 361.864563,212.968292 
	C363.778870,213.991501 365.506622,215.807480 366.683289,217.667816 
	C368.674927,220.816650 370.021973,224.367966 371.933136,227.575439 
	C372.683533,228.834793 374.115265,229.851212 375.467316,230.490433 
	C375.877136,230.684189 377.816833,229.151703 377.746429,228.567764 
	C377.536957,226.829865 377.021179,224.917587 376.003052,223.529846 
	C373.395905,219.976166 370.452179,216.669388 367.292755,212.839218 
	C370.986877,212.069992 373.492737,211.548187 376.671753,210.991623 
	C377.116547,210.931473 377.561340,210.871307 378.638428,210.857666 
	C380.052155,211.877747 381.334778,213.246277 382.909424,213.838684 
	C385.461060,214.798645 388.219086,215.771317 390.860443,215.696411 
	C392.196442,215.658508 394.576538,213.290955 394.524475,212.059601 
	C394.432007,209.873154 393.360809,207.155304 391.747437,205.760574 
	C389.991760,204.242874 387.152740,203.978363 384.327057,203.010223 
	C386.679016,200.222977 388.853607,197.645950 391.063416,195.067810 
	C391.063416,195.067810 391.099426,195.076401 391.795807,194.967667 
	C395.475891,193.361526 399.081146,191.539246 402.863892,190.229614 
	C405.162964,189.433670 406.434326,190.412125 404.537292,193.360306 
	C404.460510,193.914108 404.383698,194.467911 404.190582,195.759384 
	C404.461761,197.679657 404.732971,199.599930 404.989777,201.521957 
	C401.341187,201.310959 401.011292,202.764526 402.954926,205.474747 
	C406.075073,209.825531 409.742981,213.911530 412.118408,218.642197 
	C417.403137,229.166687 422.516907,239.830978 426.803131,250.789215 
	C432.120514,264.383881 430.115295,278.270844 426.675690,292.035156 
	C425.774048,295.643311 425.430023,299.390808 424.829895,303.074310 
	C425.365326,303.150696 425.900726,303.227051 426.436157,303.303436 
	C438.610657,284.000824 442.610382,262.966583 437.758850,240.572678 
	C434.743317,226.653320 430.988464,212.745621 419.606262,201.222198 
	C419.606262,205.273132 419.606262,207.959473 419.606262,211.883652 
	C415.371033,208.756760 412.000092,206.267960 409.656738,204.537857 
	C412.293213,202.380692 415.731445,200.793503 416.898590,198.188705 
	C417.698517,196.403412 415.271179,193.224213 414.422760,190.623703 
	C414.061279,189.515747 413.686401,188.203445 413.953033,187.143906 
	C414.466248,185.104614 415.431915,183.179169 416.190430,181.123535 
	C416.190430,181.123535 416.117767,181.078964 416.686951,180.762634 
	C418.099915,178.847809 419.512878,176.932968 420.969971,174.279068 
	C420.778137,170.513794 420.598816,170.315674 417.161926,171.023773 
	C416.049347,170.955307 414.936798,170.886826 413.300659,170.187057 
	C404.589630,170.151031 395.878571,170.115005 386.482910,170.110565 
	C385.327271,170.742432 384.171600,171.374313 382.588440,172.245682 
	C382.321716,172.450882 382.130524,172.711502 381.436859,173.291611 
	C380.944244,174.177841 380.451599,175.064056 379.989777,175.970184 
	C379.989777,175.970184 379.961731,175.966080 379.469238,176.124435 
M331.175201,271.419769 
	C331.115417,278.221130 330.964050,285.023529 331.041473,291.823334 
	C331.071869,294.494904 331.614075,297.160675 332.145203,300.576935 
	C336.694244,303.083282 338.817139,302.200409 338.962433,297.539215 
	C339.122955,292.387573 338.899323,287.223236 339.087463,282.073395 
	C339.228760,278.206085 341.671112,275.949371 345.329742,275.437683 
	C348.751617,274.959106 351.383484,276.954926 351.815918,280.138062 
	C352.544098,285.497833 352.798859,290.979370 352.588379,296.383820 
	C352.490051,298.908875 351.836884,301.467621 354.985626,301.546936 
	C357.308502,301.605438 360.312866,301.165894 360.071594,297.069916 
	C359.739685,291.434418 360.057587,285.763550 359.982178,280.109344 
	C359.896057,273.651672 352.414337,267.214020 346.414642,269.385956 
	C341.897278,271.021301 337.633514,271.565155 332.527069,271.113159 
	C332.351105,271.123779 332.175140,271.134399 331.175201,271.419769 
M120.968239,207.099106 
	C113.063591,207.356049 105.158936,207.612991 97.149323,208.805832 
	C97.088402,222.367233 97.293137,235.938522 96.787964,249.483353 
	C96.654343,253.066071 97.481277,253.975372 100.592400,253.965118 
	C107.363235,253.942795 114.144066,254.154129 120.897102,253.807770 
	C122.306824,253.735474 123.614090,251.665848 124.968567,250.516647 
	C123.400818,249.471649 121.932693,247.801941 120.241310,247.532196 
	C117.871330,247.154266 115.332489,247.792450 112.870712,248.043289 
	C109.373421,248.399628 107.856094,246.504303 108.014908,243.348541 
	C108.195900,239.752090 108.794907,236.176651 109.295708,231.875168 
	C112.245811,232.249756 114.821686,232.962692 117.330589,232.775925 
	C119.418060,232.620514 121.528397,231.588715 123.399025,230.536835 
	C123.866104,230.274185 123.674561,227.538544 123.400902,227.469727 
	C121.501076,226.991928 119.414993,226.453781 117.545555,226.794876 
	C109.481590,228.266129 108.027122,227.188919 107.998100,219.039108 
	C107.992172,217.373917 108.009789,215.708649 108.684677,213.998169 
	C109.449173,213.644623 110.213669,213.291061 111.657791,212.924362 
	C112.110764,212.935669 112.563744,212.946976 113.573433,213.549637 
	C115.699059,213.692581 117.901398,214.239212 119.926704,213.854309 
	C121.632164,213.530197 123.131805,212.123093 124.722557,211.195404 
	C123.779564,209.845062 122.836571,208.494720 120.968239,207.099106 
M165.792816,252.687317 
	C165.858124,236.959717 165.931442,221.232147 165.947739,205.504486 
	C165.948196,205.059586 165.340576,204.614075 164.208023,204.120087 
	C163.129700,204.138153 162.051361,204.156219 160.326187,204.065155 
	C159.890564,204.086853 159.454926,204.108566 158.354767,204.084579 
	C157.557312,204.365402 156.759857,204.646225 155.611588,205.144958 
	C155.544724,205.264832 155.391190,205.440536 155.426163,205.494843 
	C155.568817,205.716370 155.769165,205.900757 155.988953,206.703720 
	C155.978043,207.107559 155.967133,207.511398 155.617935,208.142349 
	C155.732452,208.452988 155.846985,208.763611 156.007980,209.982880 
	C156.011078,211.313385 156.017593,212.643875 156.016708,213.974380 
	C156.011337,222.015442 156.010773,222.015442 148.291901,220.930923 
	C137.974823,219.481323 131.637085,223.777527 129.264694,233.828964 
	C126.567665,245.255859 136.375870,256.686310 147.522644,254.241455 
	C152.198105,253.215958 156.351410,250.553436 161.674759,253.948517 
	C162.762939,253.614960 163.851120,253.281403 165.792816,252.687317 
M285.744751,300.432861 
	C285.828522,291.291840 285.932404,282.150879 285.952332,273.009735 
	C285.953735,272.376984 285.329590,271.742889 284.317902,271.095093 
	C283.869171,271.145721 283.420441,271.196350 282.339081,271.105835 
	C281.915131,271.022644 281.491211,270.939423 280.691620,270.408386 
	C280.117523,270.937408 279.543427,271.466400 278.814362,272.522461 
	C278.827698,272.705139 278.841003,272.887787 278.307983,273.681519 
	C278.505951,282.711517 278.703949,291.741486 279.400360,301.357391 
	C281.263763,301.175293 283.127136,300.993195 285.744751,300.432861 
M299.280396,317.431274 
	C301.947479,315.017395 302.611328,316.865356 302.944305,319.198792 
	C303.198029,320.976654 303.318390,322.773499 303.498077,324.561920 
	C304.217407,324.544525 304.936737,324.527130 305.656067,324.509735 
	C305.656067,321.466766 306.195648,318.272247 305.403656,315.451660 
	C305.063202,314.239166 301.972137,313.240204 300.107605,313.199310 
	C298.727600,313.169067 297.310211,314.844177 295.203308,315.721375 
	C293.892151,315.054077 292.569519,313.816986 291.272278,313.842987 
	C288.872955,313.891144 286.205322,314.172180 284.179352,315.304413 
	C282.241882,316.387207 281.263123,319.176208 279.328979,320.277222 
	C277.756195,321.172607 275.393219,320.679993 273.380707,320.802887 
	C273.364410,318.574860 272.674164,316.047333 273.498352,314.192841 
	C274.587555,311.741943 276.915894,311.366486 279.190369,313.567078 
	C279.932983,314.285583 281.181427,314.481201 282.769348,315.159912 
	C282.093445,310.134857 279.040100,308.069672 275.818207,308.305634 
	C272.332214,308.560913 269.501129,311.347015 268.992981,315.184570 
	C268.570770,318.372986 267.978027,322.026459 271.803345,323.840820 
	C276.066223,325.862671 280.147430,325.974152 283.160797,321.551331 
	C288.175537,326.060791 290.101471,326.129974 296.019348,322.821655 
	C296.900818,322.980804 297.782318,323.139954 298.663788,323.299133 
	C298.750000,321.859558 298.836212,320.419952 298.982605,318.501831 
	C298.982605,318.501831 298.921478,318.023438 299.280396,317.431274 
M185.500092,314.680634 
	C184.777313,313.035431 184.054550,311.390198 182.949326,308.874451 
	C182.033020,310.769592 181.502548,311.866730 180.294296,313.328278 
	C178.923981,313.792755 177.553665,314.257263 176.537415,314.601715 
	C175.933716,317.243774 175.419601,319.493744 174.751770,322.416473 
	C171.619766,319.353058 175.100647,313.955627 169.214996,313.430969 
	C169.593796,317.363892 168.809418,321.475769 170.499573,323.320831 
	C172.189316,325.165436 176.354156,324.742737 179.719437,325.366882 
	C179.946060,321.596771 180.103745,318.973724 180.261414,316.350677 
	C180.489777,316.415405 180.744186,316.438995 180.936447,316.560730 
	C181.046646,316.630463 181.055862,316.859650 181.037247,317.861542 
	C181.856033,320.180023 182.481140,324.378967 183.527603,324.486755 
	C187.737747,324.920349 192.390900,324.853333 196.195358,323.296906 
	C197.470901,322.775085 196.705933,317.265503 196.873642,314.035767 
	C196.430099,314.010498 195.986557,313.985229 195.543015,313.959991 
	C194.113861,316.609222 195.623032,321.228149 190.696823,321.837891 
	C190.054245,318.764862 189.485977,316.047211 188.917709,313.329559 
	C188.388458,313.433289 187.859222,313.537018 187.329987,313.640747 
	C187.109451,316.155914 186.888916,318.671082 186.668396,321.186279 
	C186.216278,321.275665 185.764145,321.365051 185.312027,321.454407 
	C184.846512,319.972656 184.380997,318.490875 184.176559,316.522461 
	C184.480804,316.064209 184.785065,315.605957 185.500092,314.680634 
M136.285400,324.624329 
	C138.490829,324.517090 140.696274,324.409851 143.180084,324.289062 
	C142.978958,320.592438 142.805862,317.411377 142.632782,314.230347 
	C142.125626,314.224426 141.618454,314.218475 141.111282,314.212524 
	C140.038086,316.666199 138.964874,319.119843 137.208511,321.704865 
	C136.748611,320.474609 136.288696,319.244354 135.929184,317.243195 
	C135.539169,316.195587 135.149170,315.147980 134.759171,314.100372 
	C134.205780,314.202850 133.652405,314.305328 133.099014,314.407806 
	C133.099014,315.931488 133.099014,317.455139 132.637436,319.249146 
	C129.884018,313.271729 127.534294,312.216919 121.063400,313.315521 
	C121.485619,312.009796 121.907837,310.704041 122.627930,308.477112 
	C120.550621,309.229553 119.055801,309.389679 118.138527,310.201996 
	C117.047836,311.167877 116.453392,312.694153 115.420296,314.332153 
	C113.476318,311.877899 112.007835,310.023987 110.539360,308.170074 
	C109.980942,308.341583 109.422516,308.513123 108.864098,308.684631 
	C109.297714,310.625427 109.281418,312.841766 110.264145,314.446228 
	C111.994896,317.271942 115.506432,319.274597 113.571465,323.478516 
	C113.520561,323.589142 115.151291,324.473816 115.130211,324.460785 
	C117.276314,320.638123 119.148727,317.302979 121.128487,314.859192 
	C121.088921,316.167572 120.726646,317.572266 121.081894,318.762848 
	C121.685425,320.785522 122.318901,323.820923 123.711288,324.332977 
	C125.530907,325.002167 128.113617,323.679169 130.342606,323.113098 
	C131.281769,322.874573 132.155975,322.380310 133.005615,322.609131 
	C133.344940,323.039276 133.684265,323.469391 134.657669,323.941101 
	C135.076263,324.002655 135.494873,324.064178 136.285400,324.624329 
M71.884659,263.207642 
	C72.981148,256.830414 67.890068,258.380920 64.009346,257.018188 
	C64.009346,260.553192 64.006973,263.541718 64.009773,266.530212 
	C64.019798,277.215210 63.937721,287.902344 64.178978,298.582153 
	C64.204849,299.727264 66.288231,301.870483 67.119553,301.734283 
	C68.824661,301.454895 70.630104,300.201202 71.795349,298.837036 
	C72.444733,298.076813 71.890533,296.288452 71.980247,294.030212 
	C71.928368,284.032928 71.876480,274.035645 71.884659,263.207642 
M216.687592,275.248016 
	C213.477341,269.595490 207.811417,267.744293 202.132874,270.273071 
	C200.566605,270.970581 198.730850,271.221283 196.995346,271.342712 
	C194.493317,271.517761 191.969910,271.387421 188.996429,271.387421 
	C188.996429,279.489685 189.013443,287.034576 188.991714,294.579346 
	C188.969238,302.386322 189.104797,302.515320 196.991013,301.229462 
	C196.991013,295.766663 196.783524,290.269104 197.087280,284.799988 
	C197.219345,282.422394 198.035278,279.899170 199.198196,277.807678 
	C200.749054,275.018463 207.216721,274.577087 208.203949,277.207031 
	C209.609589,280.951569 210.278229,285.041290 210.745483,289.043823 
	C211.025620,291.443207 210.138245,293.954407 210.097946,296.420624 
	C210.004684,302.129486 211.342484,302.949005 217.828873,300.685059 
	C217.903046,293.199005 218.011093,285.712921 218.000900,278.226990 
	C217.999832,277.448181 217.297318,276.670349 216.687592,275.248016 
M195.494858,242.335510 
	C195.407806,242.901505 195.320755,243.467484 194.774414,244.546738 
	C188.214081,248.737030 183.655304,247.322525 183.020325,240.812256 
	C182.846893,239.034073 183.195557,237.205139 183.302811,235.399384 
	C183.516983,231.793121 183.900635,228.186417 183.892960,224.580582 
	C183.885986,221.297546 181.815872,219.842239 178.662521,220.142517 
	C177.046173,220.296432 175.469009,220.861969 173.252502,221.760757 
	C173.155090,225.870926 172.894791,229.985550 173.006912,234.089981 
	C173.115173,238.053009 173.607468,242.005524 174.011719,246.701660 
	C176.971268,254.511444 184.297836,256.997894 192.596436,253.219818 
	C193.919861,252.617294 195.748184,252.633560 197.223190,252.940308 
	C203.144348,254.171661 204.955994,252.768158 205.000595,246.573242 
	C205.037506,241.446228 205.078949,236.319229 205.695847,230.706970 
	C205.906799,229.914291 206.312668,229.116623 206.292557,228.329819 
	C206.229401,225.856812 206.915909,222.281677 205.607651,221.205658 
	C204.073990,219.944260 200.747086,220.772018 198.206619,220.885818 
	C197.517136,220.916718 196.858734,221.641159 196.106827,222.974762 
	C196.062393,229.312241 196.017944,235.649719 195.494858,242.335510 
M416.481842,288.075348 
	C416.348846,288.382507 416.215820,288.689697 416.087250,289.748596 
	C416.136261,290.497314 416.185272,291.246063 416.134674,292.719940 
	C415.940277,295.617920 415.745911,298.515900 415.551514,301.413849 
	C415.968170,301.608551 416.384827,301.803253 416.801483,301.997955 
	C418.141541,299.660858 419.481598,297.323761 420.914612,294.238495 
	C420.947632,293.485199 420.980652,292.731934 421.401245,291.799805 
	C421.664825,291.626129 421.783325,291.382050 421.860199,290.512451 
	C421.900635,290.328644 421.941101,290.144867 422.577637,289.576141 
	C422.998383,287.725372 423.419098,285.874634 424.219574,283.267120 
	C430.051941,259.589111 410.575043,211.224274 396.362366,214.051941 
	C396.895203,216.792465 397.432220,219.554581 398.024139,222.599014 
	C392.273926,221.063736 387.146362,219.694702 382.018829,218.325668 
	C381.829590,218.837860 381.640381,219.350067 381.451141,219.862259 
	C384.200287,222.883881 386.790283,226.071198 389.729431,228.895035 
	C397.522186,236.381927 405.556946,243.638092 409.303406,254.259903 
	C407.069550,254.259903 404.835663,254.259903 402.407104,254.259903 
	C402.241211,255.717285 402.047424,256.681366 402.034119,257.647919 
	C401.850830,270.938690 401.583038,284.230621 401.679291,297.519775 
	C401.690186,299.024261 403.581421,301.526245 404.955750,301.803009 
	C407.978851,302.411835 410.066437,300.558380 409.897369,297.195190 
	C409.748535,294.235168 408.998596,291.284088 409.052704,288.338959 
	C409.256989,277.225830 409.680847,266.116730 410.591400,255.431625 
	C415.060577,265.774292 417.736908,276.468842 416.481842,288.075348 
M236.155350,248.903763 
	C233.862839,247.437836 231.077560,246.398224 229.370865,244.425461 
	C224.393112,238.671753 223.358170,231.666122 225.153076,224.497482 
	C226.927750,217.409714 232.716492,211.541412 240.898865,212.181381 
	C245.821487,212.566391 250.575943,215.101730 256.321838,216.968277 
	C256.750916,215.680527 258.177643,213.405533 257.951080,211.309204 
	C257.819824,210.094589 255.109451,208.423996 253.419830,208.239441 
	C246.051422,207.434601 239.147430,205.177063 231.088409,207.525146 
	C222.425858,210.049072 217.017166,214.302017 213.899536,222.185547 
	C210.694046,230.291351 213.408737,244.425095 219.129166,248.389694 
	C227.802429,254.400757 237.366455,256.919098 247.830154,254.116150 
	C250.676926,253.353577 253.950974,252.611740 255.938675,250.716797 
	C257.518066,249.211090 258.647308,245.427505 257.840790,243.595444 
	C256.085693,239.608704 253.886627,243.079132 252.268082,244.433105 
	C247.794052,248.175781 242.668625,249.422821 236.155350,248.903763 
M272.162323,226.392838 
	C273.142059,226.309937 274.416656,225.796143 275.045288,226.226334 
	C276.808807,227.433136 278.305908,229.029358 279.908081,230.471954 
	C278.467316,231.741196 277.189362,233.324203 275.535339,234.182587 
	C274.158936,234.896912 272.348328,234.865555 270.717041,234.981232 
	C264.878174,235.395279 261.310455,239.130402 261.029755,245.229492 
	C260.808594,250.035065 264.330566,254.985977 269.410339,254.750778 
	C276.891632,254.404388 284.328735,253.077713 291.889191,253.394730 
	C292.273132,253.410843 292.765259,250.847305 293.207031,249.484863 
	C288.378540,248.576843 290.196930,244.739151 290.038666,241.941757 
	C289.813660,237.963837 290.321991,233.921692 289.841888,229.989426 
	C289.550323,227.601517 288.620911,224.513260 286.879089,223.221390 
	C280.791931,218.706711 273.765289,219.350998 266.987946,221.517838 
	C265.666290,221.940369 264.697205,224.359528 264.172668,226.046539 
	C263.857574,227.059937 264.717896,228.438812 265.049957,229.653412 
	C266.635712,229.049088 268.235443,228.478256 269.800079,227.823425 
	C270.400391,227.572174 270.920532,227.129303 272.162323,226.392838 
M328.042725,223.440781 
	C326.570343,226.567062 324.745331,229.580048 323.697083,232.842606 
	C321.326447,240.221069 324.416382,248.717758 330.877899,252.136520 
	C337.111908,255.434906 343.856354,256.497437 350.391693,253.122208 
	C352.504974,252.030807 353.830872,249.414764 355.516968,247.496170 
	C353.171356,247.672546 350.601593,247.296387 348.526062,248.138443 
	C343.970947,249.986450 338.536621,249.227158 336.079712,245.310440 
	C335.036774,243.647903 334.576385,241.294281 334.787384,239.356674 
	C334.856415,238.723083 337.869873,238.086868 339.560638,238.015198 
	C344.204620,237.818390 348.863251,237.832809 353.512146,237.938141 
	C356.149109,237.997894 356.941040,236.797607 356.994781,234.342636 
	C357.132874,228.039261 353.136261,222.951462 347.255066,221.154266 
	C340.688873,219.147736 334.637848,220.031143 328.042725,223.440781 
M302.244904,270.941193 
	C301.128601,271.111389 299.801544,270.949921 298.929199,271.504089 
	C291.725433,276.080383 289.672058,289.706329 295.075500,296.418884 
	C301.343353,304.205292 316.032318,303.992310 323.018341,296.013733 
	C327.627228,290.750031 327.791962,281.643646 323.519104,275.967712 
	C320.273407,271.656189 308.606873,267.481415 302.244904,270.941193 
M235.753143,275.031708 
	C239.030701,274.807434 241.806854,276.224457 241.674683,279.437958 
	C241.614243,280.907684 238.554932,282.460815 236.620560,283.563812 
	C235.575562,284.159668 234.016998,283.786804 232.721390,284.022614 
	C226.008438,285.244415 223.449127,288.632812 224.028046,295.429932 
	C224.392776,299.712158 227.877670,302.144196 234.046600,301.877716 
	C236.899094,301.754517 239.716843,300.827057 243.385605,300.098297 
	C244.356491,300.450439 246.300385,301.448120 248.353958,301.793274 
	C249.637970,302.009064 251.087234,301.241699 252.462341,300.915497 
	C252.136749,299.591705 251.858353,298.253998 251.473251,296.947754 
	C251.024399,295.425293 250.144821,293.951416 250.049011,292.419159 
	C249.831650,288.942841 249.979370,285.443604 249.980103,281.953705 
	C249.981583,274.792206 247.615845,271.584503 240.744904,269.434021 
	C234.587479,267.506897 227.187698,271.740692 227.110641,277.836792 
	C229.862732,276.888580 232.424133,276.006042 235.753143,275.031708 
M142.321686,286.828552 
	C147.625122,286.874481 152.930603,286.845673 158.231369,286.989746 
	C162.576614,287.107880 163.735260,285.087341 162.978622,281.040649 
	C161.509155,273.181396 157.094574,270.267883 147.542816,269.878571 
	C141.449020,269.630219 135.797775,270.895142 134.455505,276.872864 
	C133.112091,282.855652 132.580399,290.040741 134.704544,295.534302 
	C137.624298,303.085510 150.581802,303.540222 156.703949,300.629700 
	C158.759140,299.652649 160.415161,297.836029 162.253632,296.403168 
	C162.007736,295.757080 161.761841,295.111023 161.515930,294.464966 
	C159.828949,294.636414 158.080963,294.587372 156.469864,295.033142 
	C154.277496,295.639679 152.033234,297.552917 150.094086,297.226379 
	C147.265015,296.749847 144.224686,295.253815 142.184021,293.260986 
	C141.041016,292.144775 141.731827,289.150726 142.321686,286.828552 
M109.928223,289.324310 
	C109.596718,285.703339 109.747368,281.951019 108.806114,278.496155 
	C107.739380,274.580750 106.118446,270.148499 101.014473,270.143402 
	C94.524094,270.136932 88.032997,270.831696 81.041634,271.254395 
	C81.041634,280.628296 80.908508,289.756866 81.116936,298.877594 
	C81.185890,301.895233 85.198265,303.284637 87.420296,300.922607 
	C88.646591,299.619049 88.915779,297.100433 89.002777,295.102814 
	C89.207909,290.392700 89.013168,285.666412 89.042862,280.947052 
	C89.062103,277.888855 90.226959,276.087769 93.723892,275.937836 
	C97.070129,275.794373 100.236404,275.441132 100.896156,279.793762 
	C101.333427,282.678619 101.639687,285.612579 101.648010,288.525543 
	C101.657425,291.821075 100.838120,295.173584 101.255623,298.387451 
	C101.431854,299.744141 103.742661,301.534393 105.282768,301.759003 
	C106.352180,301.914948 108.450768,299.943756 108.872208,298.553802 
	C109.671219,295.918579 109.596008,293.018341 109.928223,289.324310 
M370.003082,272.522034 
	C369.267487,274.063477 368.531860,275.604889 367.307404,278.170654 
	C371.804260,276.797943 374.780396,275.151154 377.699188,275.247253 
	C379.788971,275.316010 381.801880,277.719421 383.849091,279.081177 
	C382.132355,280.464508 380.575348,282.167877 378.648224,283.129608 
	C377.113220,283.895660 375.112366,283.684998 373.343140,284.033813 
	C369.293945,284.832245 364.831909,289.367126 365.246429,292.890442 
	C365.629272,296.144592 365.230957,300.456085 369.909088,301.184662 
	C373.112061,301.683472 376.573364,301.961395 379.676575,301.261810 
	C382.827301,300.551514 385.365540,298.987274 388.598907,301.648193 
	C389.678101,302.536316 392.790070,300.954315 394.972778,300.501495 
	C389.305695,295.722137 390.649780,290.349060 391.405670,285.369202 
	C392.663879,277.080200 390.020081,271.323792 382.769196,270.219482 
	C378.870148,269.625671 374.621552,271.326752 370.003082,272.522034 
M301.106445,253.651291 
	C309.845032,254.470383 309.519653,254.485809 309.103333,245.706329 
	C308.415131,231.193069 310.605957,228.832321 319.611267,228.802307 
	C319.889496,228.801376 320.166718,228.500610 320.678894,228.203674 
	C320.765747,227.558014 320.938263,226.761780 320.970215,225.959946 
	C321.193878,220.346176 320.586731,220.002075 315.207764,221.063675 
	C312.713470,221.555969 309.952667,221.596146 307.470642,221.080597 
	C300.549835,219.643051 297.888550,222.087173 299.329865,228.815414 
	C299.693298,230.511932 299.406219,232.341064 299.487030,234.106094 
	C299.777863,240.455704 300.098114,246.803970 301.106445,253.651291 
M124.973900,267.440582 
	C124.164078,265.693604 123.354256,263.946594 122.544434,262.199615 
	C120.731071,263.412201 118.610779,264.346344 117.188545,265.913849 
	C115.693611,267.561462 114.636993,269.728790 113.841911,271.839691 
	C113.423416,272.950745 113.606232,275.375488 114.143707,275.582703 
	C117.578438,276.906799 117.008362,279.674072 117.025421,282.274902 
	C117.050461,286.094055 116.992325,289.914093 117.048706,293.732605 
	C117.135452,299.607910 118.687477,301.460999 124.596092,301.816620 
	C127.094841,301.967041 130.805908,303.527222 131.481522,299.446960 
	C131.625931,298.574799 128.077728,297.091217 126.230637,295.889313 
	C125.799461,296.111420 125.368286,296.333527 124.937111,296.555634 
	C124.937111,292.626312 124.924286,288.696899 124.941963,284.767670 
	C124.952408,282.444855 124.292839,279.748291 125.252068,277.905701 
	C126.192940,276.098389 128.802322,275.159637 130.380920,274.049591 
	C128.595535,272.136414 126.795807,270.207886 124.973900,267.440582 
M265.953003,280.774872 
	C266.069641,279.341522 266.186310,277.908203 266.301147,276.497070 
	C268.027130,276.187805 269.396790,276.130066 270.611755,275.666656 
	C271.627686,275.279205 272.462616,274.417297 273.377716,273.765472 
	C272.485992,272.951752 271.416595,271.310059 270.731049,271.457153 
	C265.880035,272.498199 266.152374,269.370300 265.842499,266.225220 
	C265.705780,264.837524 264.547424,263.550507 263.852875,262.217773 
	C262.600922,263.145203 260.397919,263.952484 260.262878,265.021057 
	C259.700562,269.470917 251.316269,273.226013 258.861603,278.508087 
	C259.282501,278.802704 259.037201,280.098206 259.042297,280.928223 
	C259.056610,283.257416 259.036072,285.586761 259.035614,287.916046 
	C259.032898,301.979889 259.401001,302.342682 273.034515,301.614349 
	C273.288910,301.600769 273.525940,301.262817 274.944366,300.183075 
	C273.200287,299.048737 271.742157,297.301849 270.501434,297.444580 
	C266.915558,297.857117 266.054169,295.954224 265.962433,293.184174 
	C265.835846,289.362274 265.936737,285.532867 265.953003,280.774872 
M175.862427,297.435822 
	C176.034851,292.043457 175.964905,286.627960 176.475769,281.267853 
	C176.756744,278.319794 178.213501,276.087891 182.148956,276.595001 
	C183.130463,276.721527 184.956589,274.249023 185.411591,272.685089 
	C185.611740,271.997131 183.282898,269.610291 182.221085,269.684906 
	C177.605835,270.009277 173.034332,270.956177 168.046997,271.739655 
	C168.046997,280.167114 167.891998,288.642273 168.182434,297.102173 
	C168.238144,298.724854 169.703415,301.109283 171.119324,301.698669 
	C173.698959,302.772461 175.489182,301.103485 175.862427,297.435822 
M321.805298,313.128754 
	C320.313049,313.733490 318.820831,314.338196 317.005432,315.073883 
	C314.492432,312.415680 310.644073,311.740417 308.326843,314.818512 
	C306.915771,316.692902 306.984863,321.346619 308.394958,323.314972 
	C310.920868,326.840973 314.534485,324.964081 317.269714,322.550385 
	C318.821442,323.368164 320.305420,324.823730 321.651062,324.705444 
	C323.805420,324.516052 327.133057,323.820496 327.739288,322.393463 
	C329.804901,317.531219 327.897705,314.711304 321.805298,313.128754 
M216.043060,317.768311 
	C214.962753,316.458282 214.105087,314.414734 212.751831,314.003998 
	C210.522110,313.327209 207.959427,313.527496 205.560364,313.693848 
	C203.388977,313.844360 200.088074,313.735901 199.325745,314.985992 
	C197.491913,317.993164 197.000336,321.708466 200.802139,325.175201 
	C201.717300,321.812836 202.478073,319.017731 203.238846,316.222595 
	C206.121216,324.069946 207.624725,325.451050 212.763580,325.010406 
	C217.461136,324.607605 215.653732,321.123230 216.043060,317.768311 
M228.044525,314.991638 
	C228.023346,316.155029 227.804474,317.355774 228.016037,318.475189 
	C228.829010,322.776733 232.796661,325.464844 237.290802,324.895233 
	C241.333832,324.382751 244.217575,321.113220 243.902527,317.076172 
	C243.560425,312.692474 241.401398,309.227448 236.973526,308.430206 
	C232.660843,307.653717 229.992996,310.481232 228.044525,314.991638 
M338.487885,324.320709 
	C338.710571,322.367126 338.672180,320.329346 339.263519,318.494568 
	C339.570282,317.542755 340.991302,316.950043 341.908936,316.195068 
	C342.314423,317.088867 342.980804,317.957275 343.070679,318.881714 
	C343.253601,320.762848 343.125427,322.674164 343.125427,324.947144 
	C348.454956,323.887756 347.397064,320.048859 346.651093,317.834381 
	C345.995972,315.889618 343.343414,313.586304 341.343292,313.344849 
	C337.413300,312.870392 333.323639,313.718384 329.005707,314.041229 
	C329.005707,316.745270 328.814911,319.242767 329.097290,321.685577 
	C329.214355,322.698273 330.343597,323.593933 331.012573,324.542847 
	C331.675659,323.552551 332.643524,322.642944 332.931976,321.553436 
	C333.390259,319.822388 333.395081,317.971313 333.591705,316.170990 
	C334.024597,316.142334 334.457520,316.113708 334.890411,316.085052 
	C335.845184,318.860565 336.799957,321.636108 338.487885,324.320709 
M156.979919,312.819183 
	C157.222855,316.622864 157.465790,320.426575 157.721802,324.434967 
	C161.600800,321.452698 164.659683,319.100922 168.304825,316.298462 
	C165.700195,315.468689 163.381714,314.730072 161.063217,313.991486 
	C161.114639,313.571259 161.166061,313.151031 161.217484,312.730804 
	C163.782822,312.220551 166.348145,311.710297 169.939819,310.995911 
	C163.917328,307.820099 159.179352,308.463867 156.979919,312.819183 
M255.028717,316.026245 
	C254.679459,315.201447 254.330185,314.376617 253.980927,313.551819 
	C253.337402,314.346008 252.445419,315.045959 252.101288,315.953674 
	C251.347000,317.943207 250.870331,320.037994 250.280304,322.089813 
	C249.669464,321.979370 249.058624,321.868927 248.447769,321.758514 
	C248.285492,320.228241 248.236694,318.674591 247.927414,317.174652 
	C247.645767,315.808746 247.081375,314.501129 246.298019,312.126129 
	C242.772339,323.325073 244.569260,325.531433 255.048630,324.203827 
	C255.048630,321.799561 255.048630,319.341248 255.028717,316.026245 
M278.878784,263.124695 
	C280.768188,263.354218 282.743042,263.999298 284.510590,263.636017 
	C285.379791,263.457367 286.702087,260.998688 286.354614,260.293945 
	C285.568756,258.699951 284.099030,257.013580 282.498077,256.345123 
	C279.630310,255.147659 277.875031,257.957672 278.878784,263.124695 
M256.106293,323.022125 
	C256.904297,323.642914 257.702301,324.263702 258.500305,324.884491 
	C258.993103,323.971832 259.694183,323.111298 259.938293,322.136383 
	C260.585968,319.549652 261.036285,316.913513 261.626434,313.993713 
	C257.497040,311.857727 256.237976,312.502808 256.078156,317.690033 
	C256.032349,319.176514 256.065704,320.665466 256.106293,323.022125 
M146.994766,321.373627 
	C147.962646,319.013367 148.930527,316.653107 150.169479,313.631836 
	C148.768005,313.631836 145.620071,313.228210 145.484604,313.696320 
	C144.489761,317.134155 144.097641,320.746399 143.515579,324.303650 
	C144.030777,324.494751 144.545975,324.685822 145.061172,324.876923 
	C145.690079,323.972839 146.319000,323.068756 146.994766,321.373627 
z"/>
<path fill="#0D2366" opacity="1.000000" stroke="none" 
	d="
M416.209961,181.206512 
	C415.431915,183.179169 414.466248,185.104614 413.953033,187.143906 
	C413.686401,188.203445 414.061279,189.515747 414.422760,190.623703 
	C415.271179,193.224213 417.698517,196.403412 416.898590,198.188705 
	C415.731445,200.793503 412.293213,202.380692 409.656738,204.537857 
	C412.000092,206.267960 415.371033,208.756760 419.606262,211.883652 
	C419.606262,207.959473 419.606262,205.273132 419.606262,201.222198 
	C430.988464,212.745621 434.743317,226.653320 437.758850,240.572678 
	C442.610382,262.966583 438.610657,284.000824 426.436157,303.303436 
	C425.900726,303.227051 425.365326,303.150696 424.829895,303.074310 
	C425.430023,299.390808 425.774048,295.643311 426.675690,292.035156 
	C430.115295,278.270844 432.120514,264.383881 426.803131,250.789215 
	C422.516907,239.830978 417.403137,229.166687 412.118408,218.642197 
	C409.742981,213.911530 406.075073,209.825531 402.954926,205.474747 
	C401.011292,202.764526 401.341187,201.310959 404.996979,201.521088 
	C404.732971,199.599930 404.461761,197.679657 404.546875,195.488525 
	C405.347809,195.885193 405.668243,196.703125 406.260315,197.192078 
	C408.042603,198.663925 409.930664,200.007675 411.777527,201.401398 
	C413.230194,199.317184 414.682892,197.232971 416.051880,195.268845 
	C411.595490,194.353561 408.290314,193.674713 404.985107,192.995880 
	C406.434326,190.412125 405.162964,189.433670 402.863892,190.229614 
	C399.081146,191.539246 395.475891,193.361526 391.466064,194.665894 
	C393.584106,188.411560 399.216461,188.661453 404.125305,188.139877 
	C407.822845,187.747009 411.381836,188.285385 412.740051,183.531311 
	C413.031982,182.509338 415.009094,181.968811 416.209961,181.206512 
z"/>
<path fill="#0B2368" opacity="1.000000" stroke="none" 
	d="
M416.234253,291.994781 
	C416.185272,291.246063 416.136261,290.497314 416.277466,289.219971 
	C416.705597,288.452057 416.867188,288.169128 416.952423,287.842590 
	C417.736908,276.468842 415.060577,265.774292 410.277863,254.941925 
	C409.940094,254.268173 409.915833,254.084152 409.891541,253.900116 
	C405.556946,243.638092 397.522186,236.381927 389.729431,228.895035 
	C386.790283,226.071198 384.200287,222.883881 381.451141,219.862259 
	C381.640381,219.350067 381.829590,218.837860 382.018829,218.325668 
	C387.146362,219.694702 392.273926,221.063736 398.024139,222.599014 
	C397.432220,219.554581 396.895203,216.792465 396.362366,214.051941 
	C410.575043,211.224274 430.051941,259.589111 423.741882,283.850525 
	C422.836670,286.276337 422.409119,288.118683 421.981567,289.961060 
	C421.941101,290.144867 421.900635,290.328644 421.654053,290.913086 
	C421.256439,291.504791 421.111664,291.726440 421.013672,291.978638 
	C420.980652,292.731934 420.947632,293.485199 420.536133,294.598389 
	C418.849823,293.970459 417.542053,292.982635 416.234253,291.994781 
z"/>
<path fill="#0A2168" opacity="1.000000" stroke="none" 
	d="
M416.200195,181.165024 
	C415.009094,181.968811 413.031982,182.509338 412.740051,183.531311 
	C411.381836,188.285385 407.822845,187.747009 404.125305,188.139877 
	C399.216461,188.661453 393.584106,188.411560 391.117889,194.720276 
	C391.099426,195.076401 391.063416,195.067810 390.640930,195.048004 
	C388.686157,195.432205 386.474365,195.333176 385.738770,196.326920 
	C382.469635,200.743286 378.348053,204.806137 378.006134,210.811157 
	C377.561340,210.871307 377.116547,210.931473 376.108887,210.767029 
	C373.526855,210.578629 371.504425,210.555130 369.489227,210.664612 
	C366.223907,210.842026 362.697479,211.635193 361.951782,206.859741 
	C362.290680,206.400787 362.629578,205.941818 363.254395,205.087921 
	C363.749084,204.482956 363.900970,204.237717 363.996033,203.957275 
	C363.996033,203.957275 364.050659,203.501144 364.255188,203.112396 
	C364.621399,202.421661 364.783081,202.119690 364.944763,201.817719 
	C365.251190,201.391357 365.557648,200.964996 366.294739,200.197662 
	C367.477753,198.215271 368.230133,196.573868 368.982544,194.932465 
	C368.982544,194.932465 369.049622,194.447098 369.273651,194.075592 
	C369.718323,193.498001 369.884491,193.254684 369.996124,192.974152 
	C370.038116,192.799728 370.080109,192.625320 370.338745,192.055969 
	C370.748718,191.454269 370.888702,191.216141 370.975372,190.946655 
	C370.975372,190.946655 370.972565,191.006058 371.309784,190.942825 
	C373.088898,188.225433 374.530792,185.571274 375.972687,182.917114 
	C376.779694,181.084763 377.586731,179.252411 378.855560,177.074875 
	C379.532135,176.475143 379.746918,176.220612 379.961731,175.966064 
	C379.961731,175.966080 379.989777,175.970184 380.309570,175.904572 
	C381.091156,174.901825 381.552979,173.964676 382.014801,173.027527 
	C382.130524,172.711502 382.321716,172.450882 383.269287,172.129456 
	C389.404114,172.008286 394.861420,172.118027 400.311035,171.961472 
	C404.538971,171.840027 408.757324,171.385986 413.174011,170.959427 
	C413.368042,170.839066 413.824219,170.818359 413.824219,170.818359 
	C414.936798,170.886826 416.049347,170.955307 417.720520,171.328003 
	C418.527283,172.744736 418.775421,173.857224 418.673401,175.060822 
	C417.588074,177.127609 416.852936,179.103287 416.117798,181.078964 
	C416.117767,181.078964 416.190430,181.123535 416.200195,181.165024 
z"/>
<path fill="#0D2366" opacity="1.000000" stroke="none" 
	d="
M236.576172,248.949829 
	C242.668625,249.422821 247.794052,248.175781 252.268082,244.433105 
	C253.886627,243.079132 256.085693,239.608704 257.840790,243.595444 
	C258.647308,245.427505 257.518066,249.211090 255.938675,250.716797 
	C253.950974,252.611740 250.676926,253.353577 247.830154,254.116150 
	C237.366455,256.919098 227.802429,254.400757 219.129166,248.389694 
	C213.408737,244.425095 210.694046,230.291351 213.899536,222.185547 
	C217.017166,214.302017 222.425858,210.049072 231.088409,207.525146 
	C239.147430,205.177063 246.051422,207.434601 253.419830,208.239441 
	C255.109451,208.423996 257.819824,210.094589 257.951080,211.309204 
	C258.177643,213.405533 256.750916,215.680527 256.321838,216.968277 
	C250.575943,215.101730 245.821487,212.566391 240.898865,212.181381 
	C232.716492,211.541412 226.927750,217.409714 225.153076,224.497482 
	C223.358170,231.666122 224.393112,238.671753 229.370865,244.425461 
	C231.077560,246.398224 233.862839,247.437836 236.576172,248.949829 
z"/>
<path fill="#0A2168" opacity="1.000000" stroke="none" 
	d="
M160.983215,253.856262 
	C156.351410,250.553436 152.198105,253.215958 147.522644,254.241455 
	C136.375870,256.686310 126.567665,245.255859 129.264694,233.828964 
	C131.637085,223.777527 137.974823,219.481323 148.291901,220.930923 
	C156.010773,222.015442 156.011337,222.015442 156.016708,213.974380 
	C156.017593,212.643875 156.011078,211.313385 155.988892,209.238586 
	C155.965256,208.301285 155.960724,208.108261 155.956207,207.915237 
	C155.967133,207.511398 155.978043,207.107559 155.977676,206.108154 
	C155.965073,205.317413 155.963730,205.122238 155.962402,204.927048 
	C156.759857,204.646225 157.557312,204.365402 158.850006,204.275085 
	C159.887848,204.368484 160.430450,204.271378 160.973038,204.174286 
	C162.051361,204.156219 163.129700,204.138153 164.609711,204.450012 
	C164.959518,205.184158 164.907639,205.588364 164.625122,206.335266 
	C164.262680,219.480347 164.040680,232.282898 164.059311,245.085083 
	C164.064270,248.493881 163.844879,251.570862 160.983215,253.856262 
M143.292252,247.245087 
	C149.347748,250.092834 152.618591,249.087891 154.534042,242.771957 
	C155.564484,239.374283 155.965286,235.178726 154.880402,231.935135 
	C153.984512,229.256638 150.706421,226.123993 148.071869,225.689178 
	C146.102631,225.364166 142.157516,228.605560 141.415726,230.983658 
	C139.829391,236.069138 139.610077,241.640991 143.292252,247.245087 
z"/>
<path fill="#092065" opacity="1.000000" stroke="none" 
	d="
M108.016556,214.043411 
	C108.009789,215.708649 107.992172,217.373917 107.998100,219.039108 
	C108.027122,227.188919 109.481590,228.266129 117.545555,226.794876 
	C119.414993,226.453781 121.501076,226.991928 123.400902,227.469727 
	C123.674561,227.538544 123.866104,230.274185 123.399025,230.536835 
	C121.528397,231.588715 119.418060,232.620514 117.330589,232.775925 
	C114.821686,232.962692 112.245811,232.249756 109.295708,231.875168 
	C108.794907,236.176651 108.195900,239.752090 108.014908,243.348541 
	C107.856094,246.504303 109.373421,248.399628 112.870712,248.043289 
	C115.332489,247.792450 117.871330,247.154266 120.241310,247.532196 
	C121.932693,247.801941 123.400818,249.471649 124.968567,250.516663 
	C123.614090,251.665848 122.306824,253.735474 120.897102,253.807770 
	C114.144066,254.154129 107.363235,253.942795 100.592400,253.965118 
	C97.481277,253.975372 96.654343,253.066071 96.787964,249.483353 
	C97.293137,235.938522 97.088402,222.367233 97.651436,208.328888 
	C106.070930,207.852173 113.988304,207.852417 121.920547,208.268311 
	C120.873413,209.785019 119.998970,211.315674 118.703239,211.881302 
	C116.979507,212.633774 114.927620,212.634552 113.016716,212.958267 
	C112.563744,212.946976 112.110764,212.935669 111.096909,212.716141 
	C109.696198,213.019745 108.856377,213.531570 108.016556,214.043411 
z"/>
<path fill="#0D2366" opacity="1.000000" stroke="none" 
	d="
M271.819763,226.583282 
	C270.920532,227.129303 270.400391,227.572174 269.800079,227.823425 
	C268.235443,228.478256 266.635712,229.049088 265.049957,229.653412 
	C264.717896,228.438812 263.857574,227.059937 264.172668,226.046539 
	C264.697205,224.359528 265.666290,221.940369 266.987946,221.517838 
	C273.765289,219.350998 280.791931,218.706711 286.879089,223.221390 
	C288.620911,224.513260 289.550323,227.601517 289.841888,229.989426 
	C290.321991,233.921692 289.813660,237.963837 290.038666,241.941757 
	C290.196930,244.739151 288.378540,248.576843 293.207031,249.484863 
	C292.765259,250.847305 292.273132,253.410843 291.889191,253.394730 
	C284.328735,253.077713 276.891632,254.404388 269.410339,254.750778 
	C264.330566,254.985977 260.808594,250.035065 261.029755,245.229492 
	C261.310455,239.130402 264.878174,235.395279 270.717041,234.981232 
	C272.348328,234.865555 274.158936,234.896912 275.535339,234.182587 
	C277.189362,233.324203 278.467316,231.741196 279.908081,230.471954 
	C278.305908,229.029358 276.808807,227.433136 275.045288,226.226334 
	C274.416656,225.796143 273.142059,226.309937 271.819763,226.583282 
M280.790894,241.395889 
	C280.916260,239.175690 280.258820,237.453644 277.726959,238.713364 
	C274.835480,240.152008 270.683075,240.985199 271.926239,245.780899 
	C272.627258,248.485199 274.413483,250.035019 276.902374,247.598083 
	C278.429962,246.102417 279.315826,243.951324 280.790894,241.395889 
z"/>
<path fill="#0B2163" opacity="1.000000" stroke="none" 
	d="
M328.368164,223.241302 
	C334.637848,220.031143 340.688873,219.147736 347.255066,221.154266 
	C353.136261,222.951462 357.132874,228.039261 356.994781,234.342636 
	C356.941040,236.797607 356.149109,237.997894 353.512146,237.938141 
	C348.863251,237.832809 344.204620,237.818390 339.560638,238.015198 
	C337.869873,238.086868 334.856415,238.723083 334.787384,239.356674 
	C334.576385,241.294281 335.036774,243.647903 336.079712,245.310440 
	C338.536621,249.227158 343.970947,249.986450 348.526062,248.138443 
	C350.601593,247.296387 353.171356,247.672546 355.516968,247.496155 
	C353.830872,249.414764 352.504974,252.030807 350.391693,253.122208 
	C343.856354,256.497437 337.111908,255.434906 330.877899,252.136520 
	C324.416382,248.717758 321.326447,240.221069 323.697083,232.842606 
	C324.745331,229.580048 326.570343,226.567062 328.368164,223.241302 
M340.603119,233.992294 
	C344.188477,234.184494 347.079987,233.203903 345.178009,229.011581 
	C344.371002,227.232803 341.453339,225.130707 339.802185,225.362656 
	C338.018250,225.613281 336.593231,228.419022 335.011658,230.110245 
	C336.598175,231.389969 338.184723,232.669708 340.603119,233.992294 
z"/>
<path fill="#0A2168" opacity="1.000000" stroke="none" 
	d="
M173.874146,221.241470 
	C175.469009,220.861969 177.046173,220.296432 178.662521,220.142517 
	C181.815872,219.842239 183.885986,221.297546 183.892960,224.580582 
	C183.900635,228.186417 183.516983,231.793121 183.302811,235.399384 
	C183.195557,237.205139 182.846893,239.034073 183.020325,240.812256 
	C183.655304,247.322525 188.214081,248.737030 195.254166,244.225632 
	C195.813782,243.265411 195.893646,242.626312 195.973511,241.987198 
	C196.017944,235.649719 196.062393,229.312241 196.581787,222.498856 
	C204.819275,221.970291 204.818649,221.970306 205.044052,229.737106 
	C205.058136,230.222473 205.093124,230.707199 205.118378,231.192230 
	C205.078949,236.319229 205.037506,241.446228 205.000595,246.573242 
	C204.955994,252.768158 203.144348,254.171661 197.223190,252.940308 
	C195.748184,252.633560 193.919861,252.617294 192.596436,253.219818 
	C184.297836,256.997894 176.971268,254.511444 173.998657,245.865189 
	C173.948456,237.099640 173.911301,229.170547 173.874146,221.241470 
z"/>
<path fill="#0D2263" opacity="1.000000" stroke="none" 
	d="
M302.628265,270.904022 
	C308.606873,267.481415 320.273407,271.656189 323.519104,275.967712 
	C327.791962,281.643646 327.627228,290.750031 323.018341,296.013733 
	C316.032318,303.992310 301.343353,304.205292 295.075500,296.418884 
	C289.672058,289.706329 291.725433,276.080383 298.929199,271.504089 
	C299.801544,270.949921 301.128601,271.111389 302.628265,270.904022 
M302.576660,294.811981 
	C306.489288,298.136261 313.212189,298.349335 315.323486,295.021118 
	C317.880035,290.990906 319.037659,286.433502 317.712830,281.803436 
	C316.549377,277.737488 314.466949,274.033630 309.297028,274.011200 
	C304.185272,273.989014 302.525848,277.345917 301.109467,281.612335 
	C299.614655,286.115082 301.175323,290.003632 302.576660,294.811981 
z"/>
<path fill="#0D2263" opacity="1.000000" stroke="none" 
	d="
M235.369339,275.077606 
	C232.424133,276.006042 229.862732,276.888580 227.110641,277.836792 
	C227.187698,271.740692 234.587479,267.506897 240.744904,269.434021 
	C247.615845,271.584503 249.981583,274.792206 249.980103,281.953705 
	C249.979370,285.443604 249.831650,288.942841 250.049011,292.419159 
	C250.144821,293.951416 251.024399,295.425293 251.473251,296.947754 
	C251.858353,298.253998 252.136749,299.591705 252.462341,300.915497 
	C251.087234,301.241699 249.637970,302.009064 248.353958,301.793274 
	C246.300385,301.448120 244.356491,300.450439 243.385605,300.098297 
	C239.716843,300.827057 236.899094,301.754517 234.046600,301.877716 
	C227.877670,302.144196 224.392776,299.712158 224.028046,295.429932 
	C223.449127,288.632812 226.008438,285.244415 232.721390,284.022614 
	C234.016998,283.786804 235.575562,284.159668 236.620560,283.563812 
	C238.554932,282.460815 241.614243,280.907684 241.674683,279.437958 
	C241.806854,276.224457 239.030701,274.807434 235.369339,275.077606 
M231.940262,290.534851 
	C230.733154,294.546356 231.997070,297.086517 235.655548,296.761261 
	C237.803772,296.570282 240.243073,295.098450 241.698975,293.449921 
	C242.520355,292.519867 242.136673,288.876160 241.375275,288.539978 
	C239.776199,287.834045 237.548676,288.368347 235.620316,288.662933 
	C234.532440,288.829102 233.526382,289.530884 231.940262,290.534851 
z"/>
<path fill="#0D2263" opacity="1.000000" stroke="none" 
	d="
M141.959030,286.915649 
	C141.731827,289.150726 141.041016,292.144775 142.184021,293.260986 
	C144.224686,295.253815 147.265015,296.749847 150.094086,297.226379 
	C152.033234,297.552917 154.277496,295.639679 156.469864,295.033142 
	C158.080963,294.587372 159.828949,294.636414 161.515930,294.464966 
	C161.761841,295.111023 162.007736,295.757080 162.253632,296.403168 
	C160.415161,297.836029 158.759140,299.652649 156.703949,300.629700 
	C150.581802,303.540222 137.624298,303.085510 134.704544,295.534302 
	C132.580399,290.040741 133.112091,282.855652 134.455505,276.872864 
	C135.797775,270.895142 141.449020,269.630219 147.542816,269.878571 
	C157.094574,270.267883 161.509155,273.181396 162.978622,281.040649 
	C163.735260,285.087341 162.576614,287.107880 158.231369,286.989746 
	C152.930603,286.845673 147.625122,286.874481 141.959030,286.915649 
M141.442352,279.320465 
	C141.853790,280.506226 142.211105,282.696106 142.685074,282.721649 
	C147.180481,282.963928 151.925110,283.962280 155.789047,280.449982 
	C151.954086,272.818878 146.803986,272.247650 141.442352,279.320465 
z"/>
<path fill="#0D2366" opacity="1.000000" stroke="none" 
	d="
M109.906097,289.776245 
	C109.596008,293.018341 109.671219,295.918579 108.872208,298.553802 
	C108.450768,299.943756 106.352180,301.914948 105.282768,301.759003 
	C103.742661,301.534393 101.431854,299.744141 101.255623,298.387451 
	C100.838120,295.173584 101.657425,291.821075 101.648010,288.525543 
	C101.639687,285.612579 101.333427,282.678619 100.896156,279.793762 
	C100.236404,275.441132 97.070129,275.794373 93.723892,275.937836 
	C90.226959,276.087769 89.062103,277.888855 89.042862,280.947052 
	C89.013168,285.666412 89.207909,290.392700 89.002777,295.102814 
	C88.915779,297.100433 88.646591,299.619049 87.420296,300.922607 
	C85.198265,303.284637 81.185890,301.895233 81.116936,298.877594 
	C80.908508,289.756866 81.041634,280.628296 81.041634,271.254395 
	C88.032997,270.831696 94.524094,270.136932 101.014473,270.143402 
	C106.118446,270.148499 107.739380,274.580750 108.806114,278.496155 
	C109.747368,281.951019 109.596718,285.703339 109.906097,289.776245 
z"/>
<path fill="#0D2263" opacity="1.000000" stroke="none" 
	d="
M370.266907,272.257202 
	C374.621552,271.326752 378.870148,269.625671 382.769196,270.219482 
	C390.020081,271.323792 392.663879,277.080200 391.405670,285.369202 
	C390.649780,290.349060 389.305695,295.722137 394.972778,300.501495 
	C392.790070,300.954315 389.678101,302.536316 388.598907,301.648193 
	C385.365540,298.987274 382.827301,300.551514 379.676575,301.261810 
	C376.573364,301.961395 373.112061,301.683472 369.909088,301.184662 
	C365.230957,300.456085 365.629272,296.144592 365.246429,292.890442 
	C364.831909,289.367126 369.293945,284.832245 373.343140,284.033813 
	C375.112366,283.684998 377.113220,283.895660 378.648224,283.129608 
	C380.575348,282.167877 382.132355,280.464508 383.849091,279.081177 
	C381.801880,277.719421 379.788971,275.316010 377.699188,275.247253 
	C374.780396,275.151154 371.804260,276.797943 367.307404,278.170654 
	C368.531860,275.604889 369.267487,274.063477 370.266907,272.257202 
M384.379395,288.684814 
	C381.366364,286.472931 373.871033,288.784363 373.137817,292.151550 
	C372.555176,294.827271 375.246277,297.642212 377.919739,296.774780 
	C381.381531,295.651581 384.952850,294.262024 384.379395,288.684814 
z"/>
<path fill="#0B2163" opacity="1.000000" stroke="none" 
	d="
M216.970459,300.912994 
	C211.342484,302.949005 210.004684,302.129486 210.097946,296.420624 
	C210.138245,293.954407 211.025620,291.443207 210.745483,289.043823 
	C210.278229,285.041290 209.609589,280.951569 208.203949,277.207031 
	C207.216721,274.577087 200.749054,275.018463 199.198196,277.807678 
	C198.035278,279.899170 197.219345,282.422394 197.087280,284.799988 
	C196.783524,290.269104 196.991013,295.766663 196.991013,301.229462 
	C189.104797,302.515320 188.969238,302.386322 188.991714,294.579346 
	C189.013443,287.034576 188.996429,279.489685 188.996429,271.387421 
	C191.969910,271.387421 194.493317,271.517761 196.995346,271.342712 
	C198.730850,271.221283 200.566605,270.970581 202.132874,270.273071 
	C207.811417,267.744293 213.477341,269.595490 216.775436,276.044128 
	C216.899002,284.864502 216.934738,292.888763 216.970459,300.912994 
z"/>
<path fill="#092065" opacity="1.000000" stroke="none" 
	d="
M333.044281,271.228973 
	C337.633514,271.565155 341.897278,271.021301 346.414642,269.385956 
	C352.414337,267.214020 359.896057,273.651672 359.982178,280.109344 
	C360.057587,285.763550 359.739685,291.434418 360.071594,297.069916 
	C360.312866,301.165894 357.308502,301.605438 354.985626,301.546936 
	C351.836884,301.467621 352.490051,298.908875 352.588379,296.383820 
	C352.798859,290.979370 352.544098,285.497833 351.815918,280.138062 
	C351.383484,276.954926 348.751617,274.959106 345.329742,275.437683 
	C341.671112,275.949371 339.228760,278.206085 339.087463,282.073395 
	C338.899323,287.223236 339.122955,292.387573 338.962433,297.539215 
	C338.817139,302.200409 336.694244,303.083282 332.042419,299.888794 
	C332.020233,298.790436 332.100830,298.380157 332.405457,297.626770 
	C332.767761,288.598755 332.906036,279.913879 333.044281,271.228973 
z"/>
<path fill="#092065" opacity="1.000000" stroke="none" 
	d="
M300.756836,253.402008 
	C300.098114,246.803970 299.777863,240.455704 299.487030,234.106094 
	C299.406219,232.341064 299.693298,230.511932 299.329865,228.815414 
	C297.888550,222.087173 300.549835,219.643051 307.470642,221.080597 
	C309.952667,221.596146 312.713470,221.555969 315.207764,221.063675 
	C320.586731,220.002075 321.193878,220.346176 320.970215,225.959946 
	C320.938263,226.761780 320.765747,227.558014 320.678894,228.203674 
	C320.166718,228.500610 319.889496,228.801376 319.611267,228.802307 
	C310.605957,228.832321 308.415131,231.193069 309.103333,245.706329 
	C309.519653,254.485809 309.845032,254.470383 300.756836,253.402008 
z"/>
<path fill="#0B2163" opacity="1.000000" stroke="none" 
	d="
M124.984993,267.859985 
	C126.795807,270.207886 128.595535,272.136414 130.380920,274.049591 
	C128.802322,275.159637 126.192940,276.098389 125.252068,277.905701 
	C124.292839,279.748291 124.952408,282.444855 124.941963,284.767670 
	C124.924286,288.696899 124.937111,292.626312 124.937111,296.555634 
	C125.368286,296.333527 125.799461,296.111420 126.230637,295.889313 
	C128.077728,297.091217 131.625931,298.574799 131.481522,299.446960 
	C130.805908,303.527222 127.094841,301.967041 124.596092,301.816620 
	C118.687477,301.460999 117.135452,299.607910 117.048706,293.732605 
	C116.992325,289.914093 117.050461,286.094055 117.025421,282.274902 
	C117.008362,279.674072 117.578438,276.906799 114.143707,275.582703 
	C113.606232,275.375488 113.423416,272.950745 113.841911,271.839691 
	C114.636993,269.728790 115.693611,267.561462 117.188545,265.913849 
	C118.610779,264.346344 120.731071,263.412201 122.544434,262.199615 
	C123.354256,263.946594 124.164078,265.693604 124.984993,267.859985 
z"/>
<path fill="#092065" opacity="1.000000" stroke="none" 
	d="
M409.597473,254.080017 
	C409.915833,254.084152 409.940094,254.268173 409.993408,254.729156 
	C409.680847,266.116730 409.256989,277.225830 409.052704,288.338959 
	C408.998596,291.284088 409.748535,294.235168 409.897369,297.195190 
	C410.066437,300.558380 407.978851,302.411835 404.955750,301.803009 
	C403.581421,301.526245 401.690186,299.024261 401.679291,297.519775 
	C401.583038,284.230621 401.850830,270.938690 402.034119,257.647919 
	C402.047424,256.681366 402.241211,255.717285 402.407104,254.259903 
	C404.835663,254.259903 407.069550,254.259903 409.597473,254.080017 
z"/>
<path fill="#0B2163" opacity="1.000000" stroke="none" 
	d="
M265.946594,281.240784 
	C265.936737,285.532867 265.835846,289.362274 265.962433,293.184174 
	C266.054169,295.954224 266.915558,297.857117 270.501434,297.444580 
	C271.742157,297.301849 273.200287,299.048737 274.944366,300.183075 
	C273.525940,301.262817 273.288910,301.600769 273.034515,301.614349 
	C259.401001,302.342682 259.032898,301.979889 259.035614,287.916046 
	C259.036072,285.586761 259.056610,283.257416 259.042297,280.928223 
	C259.037201,280.098206 259.282501,278.802704 258.861603,278.508087 
	C251.316269,273.226013 259.700562,269.470917 260.262878,265.021057 
	C260.397919,263.952484 262.600922,263.145203 263.852875,262.217773 
	C264.547424,263.550507 265.705780,264.837524 265.842499,266.225220 
	C266.152374,269.370300 265.880035,272.498199 270.731049,271.457153 
	C271.416595,271.310059 272.485992,272.951752 273.377716,273.765472 
	C272.462616,274.417297 271.627686,275.279205 270.611755,275.666656 
	C269.396790,276.130066 268.027130,276.187805 266.301147,276.497070 
	C266.186310,277.908203 266.069641,279.341522 265.946594,281.240784 
z"/>
<path fill="#092065" opacity="1.000000" stroke="none" 
	d="
M71.878731,294.963440 
	C71.890533,296.288452 72.444733,298.076813 71.795349,298.837036 
	C70.630104,300.201202 68.824661,301.454895 67.119553,301.734283 
	C66.288231,301.870483 64.204849,299.727264 64.178978,298.582153 
	C63.937721,287.902344 64.019798,277.215210 64.009773,266.530212 
	C64.006973,263.541718 64.009346,260.553192 64.009346,257.018188 
	C67.890068,258.380920 72.981148,256.830414 71.531319,263.892456 
	C71.133133,271.364685 70.993111,278.153351 71.083984,284.938904 
	C71.128769,288.283386 71.600296,291.622101 71.878731,294.963440 
z"/>
<path fill="#0B2163" opacity="1.000000" stroke="none" 
	d="
M175.873352,297.851562 
	C175.489182,301.103485 173.698959,302.772461 171.119324,301.698669 
	C169.703415,301.109283 168.238144,298.724854 168.182434,297.102173 
	C167.891998,288.642273 168.046997,280.167114 168.046997,271.739655 
	C173.034332,270.956177 177.605835,270.009277 182.221085,269.684906 
	C183.282898,269.610291 185.611740,271.997131 185.411591,272.685089 
	C184.956589,274.249023 183.130463,276.721527 182.148956,276.595001 
	C178.213501,276.087891 176.756744,278.319794 176.475769,281.267853 
	C175.964905,286.627960 176.034851,292.043457 175.873352,297.851562 
z"/>
<path fill="#142760" opacity="1.000000" stroke="none" 
	d="
M295.957825,322.148163 
	C290.101471,326.129974 288.175537,326.060791 283.160797,321.551331 
	C280.147430,325.974152 276.066223,325.862671 271.803345,323.840820 
	C267.978027,322.026459 268.570770,318.372986 268.992981,315.184570 
	C269.501129,311.347015 272.332214,308.560913 275.818207,308.305634 
	C279.040100,308.069672 282.093445,310.134857 282.769348,315.159912 
	C281.181427,314.481201 279.932983,314.285583 279.190369,313.567078 
	C276.915894,311.366486 274.587555,311.741943 273.498352,314.192841 
	C272.674164,316.047333 273.364410,318.574860 273.380676,320.802887 
	C275.393219,320.679993 277.756195,321.172607 279.328979,320.277222 
	C281.263123,319.176208 282.241882,316.387207 284.179352,315.304413 
	C286.205322,314.172180 288.872955,313.891144 291.272278,313.842987 
	C292.569519,313.816986 293.892151,315.054077 295.604431,316.196350 
	C295.989655,318.496948 295.973724,320.322540 295.957825,322.148163 
z"/>
<path fill="#12235D" opacity="1.000000" stroke="none" 
	d="
M322.189514,313.133911 
	C327.897705,314.711304 329.804901,317.531219 327.739288,322.393463 
	C327.133057,323.820496 323.805420,324.516052 321.651062,324.705444 
	C320.305420,324.823730 318.821442,323.368164 317.269714,322.550385 
	C314.534485,324.964081 310.920868,326.840973 308.394958,323.314972 
	C306.984863,321.346619 306.915771,316.692902 308.326843,314.818512 
	C310.644073,311.740417 314.492432,312.415680 317.005432,315.073883 
	C318.820831,314.338196 320.313049,313.733490 322.189514,313.133911 
M310.202271,320.173920 
	C312.176086,320.336365 314.149902,320.498810 316.962769,320.730316 
	C314.772278,318.132233 313.656799,316.809204 312.050354,314.903809 
	C311.253143,316.729401 310.654480,318.100372 310.202271,320.173920 
z"/>
<path fill="#12235D" opacity="1.000000" stroke="none" 
	d="
M216.044952,318.209473 
	C215.653732,321.123230 217.461136,324.607605 212.763580,325.010406 
	C207.624725,325.451050 206.121216,324.069946 203.238846,316.222595 
	C202.478073,319.017731 201.717300,321.812836 200.802139,325.175201 
	C197.000336,321.708466 197.491913,317.993164 199.325745,314.985992 
	C200.088074,313.735901 203.388977,313.844360 205.560364,313.693848 
	C207.959427,313.527496 210.522110,313.327209 212.751831,314.003998 
	C214.105087,314.414734 214.962753,316.458282 216.044952,318.209473 
z"/>
<path fill="#12235D" opacity="1.000000" stroke="none" 
	d="
M228.184479,314.617615 
	C229.992996,310.481232 232.660843,307.653717 236.973526,308.430206 
	C241.401398,309.227448 243.560425,312.692474 243.902527,317.076172 
	C244.217575,321.113220 241.333832,324.382751 237.290802,324.895233 
	C232.796661,325.464844 228.829010,322.776733 228.016037,318.475189 
	C227.804474,317.355774 228.023346,316.155029 228.184479,314.617615 
M237.050507,321.838348 
	C239.298843,320.200378 242.182953,318.590790 240.414215,315.282471 
	C239.646362,313.846283 236.804031,312.007538 235.971802,312.434296 
	C234.275330,313.304169 232.706848,315.418762 232.169876,317.325806 
	C231.326935,320.319489 233.335083,321.783691 237.050507,321.838348 
z"/>
<path fill="#12235D" opacity="1.000000" stroke="none" 
	d="
M338.121277,324.366150 
	C336.799957,321.636108 335.845184,318.860565 334.890411,316.085052 
	C334.457520,316.113708 334.024597,316.142334 333.591705,316.170990 
	C333.395081,317.971313 333.390259,319.822388 332.931976,321.553436 
	C332.643524,322.642944 331.675659,323.552551 331.012573,324.542847 
	C330.343597,323.593933 329.214355,322.698273 329.097290,321.685577 
	C328.814911,319.242767 329.005707,316.745270 329.005707,314.041229 
	C333.323639,313.718384 337.413300,312.870392 341.343292,313.344849 
	C343.343414,313.586304 345.995972,315.889618 346.651093,317.834381 
	C347.397064,320.048859 348.454956,323.887756 343.125427,324.947144 
	C343.125427,322.674164 343.253601,320.762848 343.070679,318.881714 
	C342.980804,317.957275 342.314423,317.088867 341.908936,316.195068 
	C340.991302,316.950043 339.570282,317.542755 339.263519,318.494568 
	C338.672180,320.329346 338.710571,322.367126 338.121277,324.366150 
z"/>
<path fill="#0D2366" opacity="1.000000" stroke="none" 
	d="
M378.322266,210.834412 
	C378.348053,204.806137 382.469635,200.743286 385.738770,196.326920 
	C386.474365,195.333176 388.686157,195.432205 390.623291,195.048553 
	C388.853607,197.645950 386.679016,200.222977 384.327057,203.010223 
	C387.152740,203.978363 389.991760,204.242874 391.747437,205.760574 
	C393.360809,207.155304 394.432007,209.873154 394.524475,212.059601 
	C394.576538,213.290955 392.196442,215.658508 390.860443,215.696411 
	C388.219086,215.771317 385.461060,214.798645 382.909424,213.838684 
	C381.334778,213.246277 380.052155,211.877747 378.322266,210.834412 
M387.609680,213.981384 
	C390.592590,214.198944 393.129181,212.562286 392.328369,209.937271 
	C391.707336,207.901611 388.570923,206.633331 386.552643,205.023926 
	C385.974304,205.463882 385.395966,205.903824 384.817657,206.343781 
	C386.794373,208.678726 381.468658,212.110657 387.609680,213.981384 
z"/>
<path fill="#142760" opacity="1.000000" stroke="none" 
	d="
M361.643707,207.074066 
	C362.697479,211.635193 366.223907,210.842026 369.489227,210.664612 
	C371.504425,210.555130 373.526855,210.578629 375.772278,210.784409 
	C373.492737,211.548187 370.986877,212.069992 367.292755,212.839218 
	C370.452179,216.669388 373.395905,219.976166 376.003052,223.529846 
	C377.021179,224.917587 377.536957,226.829865 377.746429,228.567764 
	C377.816833,229.151703 375.877136,230.684189 375.467316,230.490433 
	C374.115265,229.851212 372.683533,228.834793 371.933136,227.575439 
	C370.021973,224.367966 368.674927,220.816650 366.683289,217.667816 
	C365.506622,215.807480 363.778870,213.991501 361.864563,212.968292 
	C358.398499,211.115677 360.471313,209.258759 361.643707,207.074066 
z"/>
<path fill="#0B2163" opacity="1.000000" stroke="none" 
	d="
M135.828796,318.014099 
	C136.288696,319.244354 136.748611,320.474609 137.436981,321.952087 
	C137.081467,322.841461 136.497452,323.483582 135.913452,324.125732 
	C135.494873,324.064178 135.076263,324.002655 134.299103,323.647827 
	C133.646942,322.903778 133.353333,322.453033 133.059708,322.002289 
	C132.155975,322.380310 131.281769,322.874573 130.342606,323.113098 
	C128.113617,323.679169 125.530907,325.002167 123.711288,324.332977 
	C122.318901,323.820923 121.685425,320.785522 121.081894,318.762848 
	C120.726646,317.572266 121.088921,316.167572 121.065109,314.426147 
	C121.001732,313.993073 120.980835,314.016266 120.980835,314.016266 
	C127.534294,312.216919 129.884018,313.271729 133.131744,318.986877 
	C134.360291,318.487762 135.094543,318.250916 135.828796,318.014099 
z"/>
<path fill="#0A2168" opacity="1.000000" stroke="none" 
	d="
M278.854309,273.070404 
	C278.841003,272.887787 278.827698,272.705139 279.201447,272.217163 
	C280.081421,271.559998 280.574341,271.208099 281.067261,270.856232 
	C281.491211,270.939423 281.915131,271.022644 282.746490,271.562134 
	C283.438141,278.930847 283.897339,285.842957 283.909058,292.755859 
	C283.913025,295.086517 282.781616,297.419128 282.169098,299.750824 
	C281.444977,297.364197 280.307861,295.016602 280.077698,292.583252 
	C279.493317,286.405731 279.315247,280.189758 278.899536,273.765381 
	C278.824615,273.541534 278.854309,273.070404 278.854309,273.070404 
z"/>
<path fill="#0D1E57" opacity="1.000000" stroke="none" 
	d="
M157.002594,312.371765 
	C159.179352,308.463867 163.917328,307.820099 169.939819,310.995911 
	C166.348145,311.710297 163.782822,312.220551 161.217484,312.730804 
	C161.166061,313.151031 161.114639,313.571259 161.063217,313.991486 
	C163.381714,314.730072 165.700195,315.468689 168.304825,316.298462 
	C164.659683,319.100922 161.600800,321.452698 157.721802,324.434967 
	C157.465790,320.426575 157.222855,316.622864 157.002594,312.371765 
z"/>
<path fill="#12235D" opacity="1.000000" stroke="none" 
	d="
M183.915482,317.009125 
	C184.380997,318.490875 184.846512,319.972656 185.312027,321.454407 
	C185.764145,321.365051 186.216278,321.275665 186.668396,321.186279 
	C186.888916,318.671082 187.109451,316.155914 187.329987,313.640747 
	C187.859222,313.537018 188.388458,313.433289 188.917709,313.329559 
	C189.485977,316.047211 190.054245,318.764862 190.696823,321.837891 
	C195.623032,321.228149 194.113861,316.609222 195.543015,313.959991 
	C195.986557,313.985229 196.430099,314.010498 196.873642,314.035767 
	C196.705933,317.265503 197.470901,322.775085 196.195358,323.296906 
	C192.390900,324.853333 187.737747,324.920349 183.527603,324.486755 
	C182.481140,324.378967 181.856033,320.180023 181.423859,317.434082 
	C182.512146,317.007416 183.213821,317.008270 183.915482,317.009125 
z"/>
<path fill="#0D1E57" opacity="1.000000" stroke="none" 
	d="
M184.046021,316.765808 
	C183.213821,317.008270 182.512146,317.007416 181.460526,317.011841 
	C181.055862,316.859650 181.046646,316.630463 180.936447,316.560730 
	C180.744186,316.438995 180.489777,316.415405 180.261414,316.350677 
	C180.103745,318.973724 179.946060,321.596771 179.719437,325.366882 
	C176.354156,324.742737 172.189316,325.165436 170.499573,323.320831 
	C168.809418,321.475769 169.593796,317.363892 169.214996,313.430969 
	C175.100647,313.955627 171.619766,319.353058 174.751770,322.416473 
	C175.419601,319.493744 175.933716,317.243774 176.537415,314.601715 
	C177.553665,314.257263 178.923981,313.792755 180.875443,313.386902 
	C182.667496,314.012909 183.878418,314.580322 185.089325,315.147705 
	C184.785065,315.605957 184.480804,316.064209 184.046021,316.765808 
z"/>
<path fill="#142760" opacity="1.000000" stroke="none" 
	d="
M121.011444,313.980438 
	C119.148727,317.302979 117.276314,320.638123 115.130211,324.460785 
	C115.151291,324.473816 113.520561,323.589142 113.571465,323.478516 
	C115.506432,319.274597 111.994896,317.271942 110.264145,314.446228 
	C109.281418,312.841766 109.297714,310.625427 108.864098,308.684631 
	C109.422516,308.513123 109.980942,308.341583 110.539360,308.170074 
	C112.007835,310.023987 113.476318,311.877899 115.420296,314.332153 
	C116.453392,312.694153 117.047836,311.167877 118.138527,310.201996 
	C119.055801,309.389679 120.550621,309.229553 122.627930,308.477112 
	C121.907837,310.704041 121.485619,312.009796 121.022118,313.665894 
	C120.980835,314.016266 121.001732,313.993073 121.011444,313.980438 
z"/>
<path fill="#142760" opacity="1.000000" stroke="none" 
	d="
M255.038666,316.454590 
	C255.048630,319.341248 255.048630,321.799561 255.048630,324.203827 
	C244.569260,325.531433 242.772339,323.325073 246.298019,312.126129 
	C247.081375,314.501129 247.645767,315.808746 247.927414,317.174652 
	C248.236694,318.674591 248.285492,320.228241 248.447769,321.758514 
	C249.058624,321.868927 249.669464,321.979370 250.280304,322.089813 
	C250.870331,320.037994 251.347000,317.943207 252.101288,315.953674 
	C252.445419,315.045959 253.337402,314.346008 253.980927,313.551819 
	C254.330185,314.376617 254.679459,315.201447 255.038666,316.454590 
z"/>
<path fill="#0D1E57" opacity="1.000000" stroke="none" 
	d="
M295.988586,322.484924 
	C295.973724,320.322540 295.989655,318.496948 295.957520,316.215454 
	C297.310211,314.844177 298.727600,313.169067 300.107605,313.199310 
	C301.972137,313.240204 305.063202,314.239166 305.403656,315.451660 
	C306.195648,318.272247 305.656067,321.466766 305.656067,324.509735 
	C304.936737,324.527130 304.217407,324.544525 303.498077,324.561920 
	C303.318390,322.773499 303.198029,320.976654 302.944305,319.198792 
	C302.611328,316.865356 301.947479,315.017395 298.974609,317.823914 
	C298.495453,318.533966 298.579987,318.788574 298.922424,318.980377 
	C298.836212,320.419952 298.750000,321.859558 298.663788,323.299133 
	C297.782318,323.139954 296.900818,322.980804 295.988586,322.484924 
z"/>
<path fill="#0D1E57" opacity="1.000000" stroke="none" 
	d="
M278.974487,273.989197 
	C279.315247,280.189758 279.493317,286.405731 280.077698,292.583252 
	C280.307861,295.016602 281.444977,297.364197 282.169098,299.750824 
	C282.781616,297.419128 283.913025,295.086517 283.909058,292.755859 
	C283.897339,285.842957 283.438141,278.930847 283.062805,271.632690 
	C283.420441,271.196350 283.869171,271.145721 284.646942,271.561188 
	C284.980835,281.621887 284.985687,291.216461 284.990540,300.811096 
	C283.127136,300.993195 281.263763,301.175293 279.122406,300.610474 
	C278.887787,291.238770 278.931152,282.613983 278.974487,273.989197 
z"/>
<path fill="#142760" opacity="1.000000" stroke="none" 
	d="
M278.660767,262.835205 
	C277.875031,257.957672 279.630310,255.147659 282.498077,256.345123 
	C284.099030,257.013580 285.568756,258.699951 286.354614,260.293945 
	C286.702087,260.998688 285.379791,263.457367 284.510590,263.636017 
	C282.743042,263.999298 280.768188,263.354218 278.660767,262.835205 
z"/>
<path fill="#0A2168" opacity="1.000000" stroke="none" 
	d="
M404.761200,193.178101 
	C408.290314,193.674713 411.595490,194.353561 416.051880,195.268845 
	C414.682892,197.232971 413.230194,199.317184 411.777527,201.401398 
	C409.930664,200.007675 408.042603,198.663925 406.260315,197.192078 
	C405.668243,196.703125 405.347809,195.885193 404.605042,195.119690 
	C404.383698,194.467911 404.460510,193.914108 404.761200,193.178101 
z"/>
<path fill="#12235D" opacity="1.000000" stroke="none" 
	d="
M256.084534,322.587708 
	C256.065704,320.665466 256.032349,319.176514 256.078156,317.690033 
	C256.237976,312.502808 257.497040,311.857727 261.626434,313.993713 
	C261.036285,316.913513 260.585968,319.549652 259.938293,322.136383 
	C259.694183,323.111298 258.993103,323.971832 258.500305,324.884521 
	C257.702301,324.263702 256.904297,323.642914 256.084534,322.587708 
z"/>
<path fill="#0D1E57" opacity="1.000000" stroke="none" 
	d="
M161.328979,253.902390 
	C163.844879,251.570862 164.064270,248.493881 164.059311,245.085083 
	C164.040680,232.282898 164.262680,219.480347 164.708008,206.798523 
	C164.994125,222.262039 164.966705,237.604950 164.939301,252.947876 
	C163.851120,253.281403 162.762939,253.614960 161.328979,253.902390 
z"/>
<path fill="#FCFFFF" opacity="1.000000" stroke="none" 
	d="
M165.366058,252.817596 
	C164.966705,237.604950 164.994125,222.262039 164.938629,206.455841 
	C164.907639,205.588364 164.959518,205.184158 165.013947,204.474396 
	C165.340576,204.614075 165.948196,205.059586 165.947739,205.504486 
	C165.931442,221.232147 165.858124,236.959717 165.366058,252.817596 
z"/>
<path fill="#0D1E57" opacity="1.000000" stroke="none" 
	d="
M146.971344,321.769165 
	C146.319000,323.068756 145.690079,323.972839 145.061172,324.876923 
	C144.545975,324.685822 144.030777,324.494751 143.515579,324.303650 
	C144.097641,320.746399 144.489761,317.134155 145.484604,313.696320 
	C145.620071,313.228210 148.768005,313.631836 150.169479,313.631836 
	C148.930527,316.653107 147.962646,319.013367 146.971344,321.769165 
z"/>
<path fill="#12235D" opacity="1.000000" stroke="none" 
	d="
M136.099426,324.375000 
	C136.497452,323.483582 137.081467,322.841461 137.778564,321.886414 
	C138.964874,319.119843 140.038086,316.666199 141.111282,314.212524 
	C141.618454,314.218475 142.125626,314.224426 142.632782,314.230347 
	C142.805862,317.411377 142.978958,320.592438 143.180084,324.289062 
	C140.696274,324.409851 138.490829,324.517090 136.099426,324.375000 
z"/>
<path fill="#0D1E57" opacity="1.000000" stroke="none" 
	d="
M113.295074,213.253952 
	C114.927620,212.634552 116.979507,212.633774 118.703239,211.881302 
	C119.998970,211.315674 120.873413,209.785019 121.929123,208.090973 
	C121.922836,207.497986 121.893578,207.144379 121.893578,207.144379 
	C122.836571,208.494720 123.779564,209.845062 124.722557,211.195404 
	C123.131805,212.123093 121.632164,213.530197 119.926704,213.854309 
	C117.901398,214.239212 115.699059,213.692581 113.295074,213.253952 
z"/>
<path fill="#0D1E57" opacity="1.000000" stroke="none" 
	d="
M412.979950,171.079803 
	C408.757324,171.385986 404.538971,171.840027 400.311035,171.961472 
	C394.861420,172.118027 389.404114,172.008286 383.483032,172.009705 
	C384.171600,171.374313 385.327271,170.742432 387.008240,170.477524 
	C396.015686,170.922913 404.497833,171.001358 412.979950,171.079803 
z"/>
<path fill="#B2C1E3" opacity="1.000000" stroke="none" 
	d="
M71.929489,294.496826 
	C71.600296,291.622101 71.128769,288.283386 71.083984,284.938904 
	C70.993111,278.153351 71.133133,271.364685 71.501289,264.307831 
	C71.876480,274.035645 71.928368,284.032928 71.929489,294.496826 
z"/>
<path fill="#0D1E57" opacity="1.000000" stroke="none" 
	d="
M205.407104,230.949600 
	C205.093124,230.707199 205.058136,230.222473 205.044052,229.737106 
	C204.818649,221.970306 204.819275,221.970291 196.621399,222.035110 
	C196.858734,221.641159 197.517136,220.916718 198.206619,220.885818 
	C200.747086,220.772018 204.073990,219.944260 205.607651,221.205658 
	C206.915909,222.281677 206.229401,225.856812 206.292557,228.329819 
	C206.312668,229.116623 205.906799,229.914291 205.407104,230.949600 
z"/>
<path fill="#7F8DAB" opacity="1.000000" stroke="none" 
	d="
M285.367645,300.621948 
	C284.985687,291.216461 284.980835,281.621887 284.986145,271.568359 
	C285.329590,271.742889 285.953735,272.376984 285.952332,273.009735 
	C285.932404,282.150879 285.828522,291.291840 285.367645,300.621948 
z"/>
<path fill="#B2C1E3" opacity="1.000000" stroke="none" 
	d="
M332.181427,297.969910 
	C332.100830,298.380157 332.020233,298.790436 331.931396,299.514893 
	C331.614075,297.160675 331.071869,294.494904 331.041473,291.823334 
	C330.964050,285.023529 331.115417,278.221130 331.586670,271.738037 
	C332.059235,280.694183 332.120331,289.332031 332.181427,297.969910 
z"/>
<path fill="#12235D" opacity="1.000000" stroke="none" 
	d="
M416.184448,292.357361 
	C417.542053,292.982635 418.849823,293.970459 420.489624,294.972473 
	C419.481598,297.323761 418.141541,299.660858 416.801483,301.997955 
	C416.384827,301.803253 415.968170,301.608551 415.551514,301.413849 
	C415.745911,298.515900 415.940277,295.617920 416.184448,292.357361 
z"/>
<path fill="#7F8DAB" opacity="1.000000" stroke="none" 
	d="
M278.899536,273.765381 
	C278.931152,282.613983 278.887787,291.238770 278.873199,300.317505 
	C278.703949,291.741486 278.505951,282.711517 278.581146,273.375977 
	C278.854309,273.070404 278.824615,273.541534 278.899536,273.765381 
z"/>
<path fill="#FCFFFF" opacity="1.000000" stroke="none" 
	d="
M413.174011,170.959442 
	C404.497833,171.001358 396.015686,170.922913 387.350555,170.461731 
	C395.878571,170.115005 404.589630,170.151031 413.562439,170.502716 
	C413.824219,170.818359 413.368042,170.839066 413.174011,170.959442 
z"/>
<path fill="#0D1E57" opacity="1.000000" stroke="none" 
	d="
M332.405457,297.626770 
	C332.120331,289.332031 332.059235,280.694183 331.998657,271.600677 
	C332.175140,271.134399 332.351105,271.123779 332.785675,271.171082 
	C332.906036,279.913879 332.767761,288.598755 332.405457,297.626770 
z"/>
<path fill="#7F8DAB" opacity="1.000000" stroke="none" 
	d="
M121.430908,207.121735 
	C121.893578,207.144379 121.922836,207.497986 121.914261,207.675323 
	C113.988304,207.852417 106.070930,207.852173 97.703918,207.860931 
	C105.158936,207.612991 113.063591,207.356049 121.430908,207.121735 
z"/>
<path fill="#7F8DAB" opacity="1.000000" stroke="none" 
	d="
M173.563324,221.501114 
	C173.911301,229.170547 173.948456,237.099640 173.958344,245.495697 
	C173.607468,242.005524 173.115173,238.053009 173.006912,234.089981 
	C172.894791,229.985550 173.155090,225.870926 173.563324,221.501114 
z"/>
<path fill="#B2C1E3" opacity="1.000000" stroke="none" 
	d="
M217.399658,300.799011 
	C216.934738,292.888763 216.899002,284.864502 216.891785,276.366150 
	C217.297318,276.670349 217.999832,277.448181 218.000900,278.226990 
	C218.011093,285.712921 217.903046,293.199005 217.399658,300.799011 
z"/>
<path fill="#142760" opacity="1.000000" stroke="none" 
	d="
M375.633820,183.002747 
	C374.530792,185.571274 373.088898,188.225433 371.290527,190.920166 
	C372.387665,188.336624 373.841309,185.712494 375.633820,183.002747 
z"/>
<path fill="#12235D" opacity="1.000000" stroke="none" 
	d="
M185.294708,314.914185 
	C183.878418,314.580322 182.667496,314.012909 181.214325,313.204712 
	C181.502548,311.866730 182.033020,310.769592 182.949326,308.874451 
	C184.054550,311.390198 184.777313,313.035431 185.294708,314.914185 
z"/>
<path fill="#0D2366" opacity="1.000000" stroke="none" 
	d="
M416.402374,180.920807 
	C416.852936,179.103287 417.588074,177.127609 418.990356,175.068359 
	C420.080231,174.995911 420.503052,175.007019 420.925842,175.018127 
	C419.512878,176.932968 418.099915,178.847809 416.402374,180.920807 
z"/>
<path fill="#12235D" opacity="1.000000" stroke="none" 
	d="
M135.878998,317.628632 
	C135.094543,318.250916 134.360291,318.487762 133.362518,318.851685 
	C133.099014,317.455139 133.099014,315.931488 133.099014,314.407806 
	C133.652405,314.305328 134.205780,314.202850 134.759171,314.100372 
	C135.149170,315.147980 135.539169,316.195587 135.878998,317.628632 
z"/>
<path fill="#0D1E57" opacity="1.000000" stroke="none" 
	d="
M420.947906,174.648590 
	C420.503052,175.007019 420.080231,174.995911 419.340515,174.977264 
	C418.775421,173.857224 418.527283,172.744736 418.139404,171.314941 
	C420.598816,170.315674 420.778137,170.513794 420.947906,174.648590 
z"/>
<path fill="#142760" opacity="1.000000" stroke="none" 
	d="
M368.666138,195.084778 
	C368.230133,196.573868 367.477753,198.215271 366.391968,199.953552 
	C366.822266,198.445999 367.585999,196.841553 368.666138,195.084778 
z"/>
<path fill="#12235D" opacity="1.000000" stroke="none" 
	d="
M422.279602,289.768616 
	C422.409119,288.118683 422.836670,286.276337 423.552002,284.228912 
	C423.419098,285.874634 422.998383,287.725372 422.279602,289.768616 
z"/>
<path fill="#0D1E57" opacity="1.000000" stroke="none" 
	d="
M108.350616,214.020782 
	C108.856377,213.531570 109.696198,213.019745 110.757095,212.722717 
	C110.213669,213.291061 109.449173,213.644623 108.350616,214.020782 
z"/>
<path fill="#0D1E57" opacity="1.000000" stroke="none" 
	d="
M381.725830,173.159576 
	C381.552979,173.964676 381.091156,174.901825 380.294159,175.894623 
	C380.451599,175.064056 380.944244,174.177841 381.725830,173.159576 
z"/>
<path fill="#0D1E57" opacity="1.000000" stroke="none" 
	d="
M280.879456,270.632324 
	C280.574341,271.208099 280.081421,271.559998 279.278931,271.953644 
	C279.543427,271.466400 280.117523,270.937408 280.879456,270.632324 
z"/>
<path fill="#0D1E57" opacity="1.000000" stroke="none" 
	d="
M195.734192,242.161346 
	C195.893646,242.626312 195.813782,243.265411 195.483810,243.968994 
	C195.320755,243.467484 195.407806,242.901505 195.734192,242.161346 
z"/>
<path fill="#12235D" opacity="1.000000" stroke="none" 
	d="
M133.032654,322.305725 
	C133.353333,322.453033 133.646942,322.903778 133.982056,323.627014 
	C133.684265,323.469391 133.344940,323.039276 133.032654,322.305725 
z"/>
<path fill="#0D1E57" opacity="1.000000" stroke="none" 
	d="
M160.649612,204.119720 
	C160.430450,204.271378 159.887848,204.368484 159.182281,204.297943 
	C159.454926,204.108566 159.890564,204.086853 160.649612,204.119720 
z"/>
<path fill="#142760" opacity="1.000000" stroke="none" 
	d="
M369.784058,193.073151 
	C369.884491,193.254684 369.718323,193.498001 369.319397,193.834915 
	C369.146210,193.626022 369.289825,193.361496 369.784058,193.073151 
z"/>
<path fill="#142760" opacity="1.000000" stroke="none" 
	d="
M298.952515,318.741089 
	C298.579987,318.788574 298.495453,318.533966 298.795166,318.119995 
	C298.921478,318.023438 298.982605,318.501831 298.952515,318.741089 
z"/>
<path fill="#0D1E57" opacity="1.000000" stroke="none" 
	d="
M379.715485,176.045258 
	C379.746918,176.220612 379.532135,176.475143 379.086243,176.833740 
	C379.059814,176.666687 379.264526,176.395569 379.715485,176.045258 
z"/>
<path fill="#142760" opacity="1.000000" stroke="none" 
	d="
M370.787781,191.058441 
	C370.888702,191.216141 370.748718,191.454269 370.397583,191.793365 
	C370.221863,191.608093 370.342010,191.356262 370.787781,191.058441 
z"/>
<path fill="#142760" opacity="1.000000" stroke="none" 
	d="
M364.684814,201.928085 
	C364.783081,202.119690 364.621399,202.421661 364.254669,202.882690 
	C364.174652,202.707306 364.299744,202.372879 364.684814,201.928085 
z"/>
<path fill="#142760" opacity="1.000000" stroke="none" 
	d="
M363.781647,204.052917 
	C363.900970,204.237717 363.749084,204.482956 363.370667,204.826889 
	C363.149139,204.611664 363.271240,204.340927 363.781647,204.052917 
z"/>
<path fill="#0D1E57" opacity="1.000000" stroke="none" 
	d="
M155.786987,205.036011 
	C155.963730,205.122238 155.965073,205.317413 155.957336,205.805695 
	C155.769165,205.900757 155.568817,205.716370 155.426163,205.494843 
	C155.391190,205.440536 155.544724,205.264832 155.786987,205.036011 
z"/>
<path fill="#0D1E57" opacity="1.000000" stroke="none" 
	d="
M155.787079,208.028793 
	C155.960724,208.108261 155.965256,208.301285 155.965652,208.784271 
	C155.846985,208.763611 155.732452,208.452988 155.787079,208.028793 
z"/>
<path fill="#12235D" opacity="1.000000" stroke="none" 
	d="
M416.717133,287.958984 
	C416.867188,288.169128 416.705597,288.452057 416.275208,288.844116 
	C416.215820,288.689697 416.348846,288.382507 416.717133,287.958984 
z"/>
<path fill="#12235D" opacity="1.000000" stroke="none" 
	d="
M421.207458,291.889221 
	C421.111664,291.726440 421.256439,291.504791 421.602356,291.190613 
	C421.783325,291.382050 421.664825,291.626129 421.207458,291.889221 
z"/>
<path fill="#000000" opacity="1.000000" stroke="none" 
	d="
M143.147095,246.881180 
	C139.610077,241.640991 139.829391,236.069138 141.415726,230.983658 
	C142.157516,228.605560 146.102631,225.364166 148.071869,225.689178 
	C150.706421,226.123993 153.984512,229.256638 154.880402,231.935135 
	C155.965286,235.178726 155.564484,239.374283 154.534042,242.771957 
	C152.618591,249.087891 149.347748,250.092834 143.147095,246.881180 
z"/>
<path fill="#000000" opacity="1.000000" stroke="none" 
	d="
M280.640381,241.745209 
	C279.315826,243.951324 278.429962,246.102417 276.902374,247.598083 
	C274.413483,250.035019 272.627258,248.485199 271.926239,245.780899 
	C270.683075,240.985199 274.835480,240.152008 277.726959,238.713364 
	C280.258820,237.453644 280.916260,239.175690 280.640381,241.745209 
z"/>
<path fill="#000000" opacity="1.000000" stroke="none" 
	d="
M340.187195,233.970871 
	C338.184723,232.669708 336.598175,231.389969 335.011658,230.110229 
	C336.593231,228.419022 338.018250,225.613281 339.802185,225.362656 
	C341.453339,225.130707 344.371002,227.232803 345.178009,229.011581 
	C347.079987,233.203903 344.188477,234.184494 340.187195,233.970871 
z"/>
<path fill="#000000" opacity="1.000000" stroke="none" 
	d="
M302.413940,294.450989 
	C301.175323,290.003632 299.614655,286.115082 301.109467,281.612335 
	C302.525848,277.345917 304.185272,273.989014 309.297028,274.011200 
	C314.466949,274.033630 316.549377,277.737488 317.712830,281.803436 
	C319.037659,286.433502 317.880035,290.990906 315.323486,295.021118 
	C313.212189,298.349335 306.489288,298.136261 302.413940,294.450989 
z"/>
<path fill="#000000" opacity="1.000000" stroke="none" 
	d="
M232.211853,290.263123 
	C233.526382,289.530884 234.532440,288.829102 235.620316,288.662933 
	C237.548676,288.368347 239.776199,287.834045 241.375275,288.539978 
	C242.136673,288.876160 242.520355,292.519867 241.698975,293.449921 
	C240.243073,295.098450 237.803772,296.570282 235.655548,296.761261 
	C231.997070,297.086517 230.733154,294.546356 232.211853,290.263123 
z"/>
<path fill="#000000" opacity="1.000000" stroke="none" 
	d="
M141.680084,279.009583 
	C146.803986,272.247650 151.954086,272.818878 155.789047,280.449982 
	C151.925110,283.962280 147.180481,282.963928 142.685074,282.721649 
	C142.211105,282.696106 141.853790,280.506226 141.680084,279.009583 
z"/>
<path fill="#000000" opacity="1.000000" stroke="none" 
	d="
M384.272827,289.036377 
	C384.952850,294.262024 381.381531,295.651581 377.919739,296.774780 
	C375.246277,297.642212 372.555176,294.827271 373.137817,292.151550 
	C373.871033,288.784363 381.366364,286.472931 384.272827,289.036377 
z"/>
<path fill="#000000" opacity="1.000000" stroke="none" 
	d="
M310.129028,319.822632 
	C310.654480,318.100372 311.253143,316.729401 312.050354,314.903809 
	C313.656799,316.809204 314.772278,318.132233 316.962769,320.730316 
	C314.149902,320.498810 312.176086,320.336365 310.129028,319.822632 
z"/>
<path fill="#000000" opacity="1.000000" stroke="none" 
	d="
M236.664154,321.890289 
	C233.335083,321.783691 231.326935,320.319489 232.169876,317.325806 
	C232.706848,315.418762 234.275330,313.304169 235.971802,312.434296 
	C236.804031,312.007538 239.646362,313.846283 240.414215,315.282471 
	C242.182953,318.590790 239.298843,320.200378 236.664154,321.890289 
z"/>
<path fill="#0A2168" opacity="1.000000" stroke="none" 
	d="
M387.226379,213.958298 
	C381.468658,212.110657 386.794373,208.678726 384.817657,206.343781 
	C385.395966,205.903824 385.974304,205.463882 386.552643,205.023926 
	C388.570923,206.633331 391.707336,207.901611 392.328369,209.937271 
	C393.129181,212.562286 390.592590,214.198944 387.226379,213.958298 
z"/>
</svg>